# xmcd
#
# Track frame offsets: 
#        150
#        16401
#        29492
#        42567
#        59174
#        80594
#        98481
#        118002
#        134473
#        150296
#        169060
#        185620
#        199929
#
# Disc length: 2861 seconds
#
# Revision: 0
# Processed by: cddbd v1.5.2PL0 Copyright (c) Steve Scherf et al.
# Submitted via: ExactAudioCopy v1.0b3
#
DISCID=b20b2b0d
DTITLE=Acda en de Munnik - Liedjes van Lenny
DYEAR=2004
DGENRE=Other
TTITLE0=Duivel is dood
TTITLE1=Tot dat ik jou
TTITLE2=Wat ik zie moet ik hebben
TTITLE3=(Noem me) oud verdriet
TTITLE4=Mijn client (vogelvrij)
TTITLE5=Minnaars en verliezers
TTITLE6=Ik hou van bijna
TTITLE7=Je huis is af
TTITLE8=Voor jou
TTITLE9=Kleine man
TTITLE10=Van de regels en het spel
TTITLE11=De liefde voortaan
TTITLE12=Geen liedje
EXTD=
EXTT0=
EXTT1=
EXTT2=
EXTT3=
EXTT4=
EXTT5=
EXTT6=
EXTT7=
EXTT8=
EXTT9=
EXTT10=
EXTT11=
EXTT12=
PLAYORDER=
